<svg xmlns="http://www.w3.org/2000/svg" viewBox="0 0 400 300" fill="none">
  <rect width="400" height="300" rx="12" fill="#0d1117"/>
  <path d="M200 60c-49.7 0-90 40.3-90 90 0 39.8 25.8 73.5 61.6 85.4 4.5.8 6.2-2 6.2-4.4 0-2.2-.1-9.4-.1-17.1-25.1 5.5-30.3-10.6-30.3-10.6-4.1-10.4-10-13.2-10-13.2-8.2-5.6.6-5.5.6-5.5 9 .6 13.8 9.3 13.8 9.3 8 13.8 21 9.8 26.2 7.5.8-5.8 3.1-9.8 5.7-12.1-20-2.3-41.1-10-41.1-44.6 0-9.9 3.5-17.9 9.3-24.2-.9-2.3-4-12.1.9-25.2 0 0 7.6-2.4 24.8 9.3 7.2-2 14.9-3 22.6-3 7.7 0 15.4 1 22.6 3 17.2-11.7 24.8-9.3 24.8-9.3 4.9 13.1 1.9 22.9.9 25.2 5.8 6.3 9.3 14.4 9.3 24.2 0 34.7-21.1 42.3-41.2 44.5 3.2 2.8 6.1 8.3 6.1 16.7 0 12.1-.1 21.8-.1 24.8 0 2.4 1.6 5.2 6.2 4.4C264.2 223.5 290 189.8 290 150c0-49.7-40.3-90-90-90z" fill="#e6edf3"/>
  <text x="200" y="268" text-anchor="middle" font-family="system-ui, -apple-system, sans-serif" font-size="14" font-weight="500" fill="#8b949e">View on GitHub</text>
</svg>
